Coordinates
version=1
nRows=17
nColumns=24
inDegrees=yes

Units are S.I. units (second, meters, Newtons, ...)
Angles are in degrees.

endheader
time	pelvis_tilt	pelvis_list	pelvis_rotation	pelvis_tx	pelvis_ty	pelvis_tz	hip_flexion_r	hip_adduction_r	hip_rotation_r	knee_angle_r	ankle_angle_r	subtalar_angle_r	mtp_angle_r	hip_flexion_l	hip_adduction_l	hip_rotation_l	knee_angle_l	ankle_angle_l	subtalar_angle_l	mtp_angle_l	lumbar_extension	lumbar_bending	lumbar_rotation
      2.48000000	    -10.59106270	      0.83043418	      1.82636873	     -0.12047707	      0.94752857	     -0.00175803	     19.88120877	     -0.69530861	     -2.74503244	    -21.02840925	     19.83543738	      0.00000065	      0.00000000	     45.84929061	     -4.53885042	     -9.47615833	    -56.88399716	     12.92419563	     -0.00000000	      0.00000000	    -13.26986661	     -3.73620375	      3.94905371
      2.49000000	    -10.60232314	      0.99496793	      1.50254392	     -0.12106410	      0.94694983	     -0.00141980	     18.29698345	     -0.69618767	     -2.39705052	    -19.41792566	     19.13074916	      0.00000064	      0.00000000	     46.81973014	     -4.79246434	    -10.40618265	    -54.52105515	     13.49385798	     -0.00000002	      0.00000000	    -13.24990320	     -4.06058435	      4.31265432
      2.50000000	    -10.66043863	      0.92253680	      1.42610960	     -0.12233725	      0.94567409	     -0.00170540	     17.03307747	     -0.59074937	     -2.37777361	    -18.31653743	     18.97474270	      0.00000059	      0.00000000	     47.92395908	     -4.95443177	    -10.76831365	    -52.07849358	     14.09160571	     -0.00000002	      0.00000000	    -13.25822826	     -4.04580937	      4.48028005
      2.51000000	    -10.69569991	      0.90908689	      1.28558857	     -0.12335042	      0.94394945	     -0.00203636	     15.67513707	     -0.52693818	     -2.26461782	    -17.09346373	     18.51406842	      0.00000059	      0.00000000	     48.84859157	     -5.04055955	    -11.03407847	    -49.40978181	     14.39510360	     -0.00000010	      0.00000000	    -13.26616155	     -4.09315598	      4.67551503
      2.52000000	    -10.68810879	      0.89809538	      1.17306885	     -0.12425302	      0.94192129	     -0.00246728	     14.04865906	     -0.52516663	     -2.43632712	    -15.42661021	     17.36066588	      0.00000066	      0.00000000	     49.59494499	     -5.07482765	    -11.13328878	    -46.63925542	     14.96918200	     -0.00000008	      0.00000000	    -13.30722624	     -4.14084481	      4.82985044
      2.53000000	    -10.62572726	      0.81177181	      1.08744527	     -0.12480615	      0.93966286	     -0.00307211	     12.72854997	     -0.45288123	     -2.47024713	    -14.58526946	     17.41552547	      0.00000056	      0.00000000	     50.18524862	     -5.12475573	    -10.95325233	    -43.75384200	     15.30533347	     -0.00000007	      0.00000000	    -13.38155971	     -4.07979529	      4.94651518
      2.54000000	    -10.42854076	      0.51039236	      1.10934450	     -0.12475020	      0.93742038	     -0.00388408	     10.94666229	     -0.17129463	     -2.70823659	    -13.22666760	     17.24850584	      0.00000055	      0.00000000	     50.58098846	     -5.26532688	    -10.54424936	    -40.94359997	     16.16725610	     -0.00000003	      0.00000000	    -13.53608913	     -3.76291234	      5.00221947
      2.55000000	    -10.19833153	      0.18562478	      1.13617725	     -0.12448977	      0.93478539	     -0.00482806	      9.13232597	      0.12736111	     -2.97225714	    -11.91249547	     17.13211790	      0.00000065	      0.00000000	     50.89832715	     -5.41662557	     -9.90326693	    -38.27393714	     17.03379454	     -0.00000002	      0.00000000	    -13.67116566	     -3.36885840	      4.94707413
      2.56000000	    -10.17735432	      0.29955756	      0.87299781	     -0.12522686	      0.93136366	     -0.00530835	      8.06180015	     -0.05841255	     -3.06466690	    -11.41748991	     16.88950326	      0.00000056	      0.00000000	     51.24513800	     -5.40326926	     -9.55061871	    -35.55743656	     17.99565918	     -0.00000004	      0.00000000	    -13.71854728	     -3.62301881	      5.21429556
      2.57000000	    -10.01754748	      0.15818555	      0.75019263	     -0.12513131	      0.92795171	     -0.00605034	      6.50630124	      0.05159674	     -3.15601652	    -10.40938881	     16.67404228	      0.00000055	      0.00000000	     51.45904079	     -5.53661660	     -8.89018866	    -33.12406717	     18.81838858	      0.00000004	      0.00000000	    -13.81444887	     -3.53233205	      5.31675767
      2.58000000	     -9.85723428	      0.06339789	      0.63449995	     -0.12474751	      0.92452420	     -0.00673495	      4.92294938	      0.11601722	     -3.18752319	     -9.39258317	     16.65934139	      0.00000054	      0.00000000	     51.59203668	     -5.65261923	     -8.35101009	    -30.96462170	     19.73705280	     -0.00000000	      0.00000000	    -13.89059835	     -3.55553770	      5.41616682
      2.59000000	     -9.67323742	      0.00281276	      0.47839004	     -0.12440400	      0.92063384	     -0.00754456	      3.24801367	      0.15509162	     -3.11004384	     -8.22048120	     16.18544848	      0.00000053	      0.00000000	     51.75480046	     -5.76581816	     -7.87842159	    -29.25070304	     20.64641052	      0.00000004	      0.00000000	    -13.94104877	     -3.57542228	      5.46373771
      2.60000000	     -9.45533126	     -0.07593210	      0.34875252	     -0.12375935	      0.91677094	     -0.00841346	      1.67768090	      0.17187119	     -3.13542713	     -7.36318664	     16.24245306	      0.00000050	      0.00000000	     51.90921996	     -5.87574341	     -7.44671503	    -28.00077160	     21.47404195	      0.00000004	      0.00000000	    -13.99121596	     -3.56326714	      5.43475767
      2.61000000	     -9.27611557	     -0.00926758	      0.20895333	     -0.12288624	      0.91292118	     -0.00930603	      0.15907893	      0.02650968	     -3.12811553	     -6.56191291	     16.38743853	      0.00000057	      0.00000000	     52.07149717	     -5.84053810	     -7.12716941	    -27.21270989	     22.25321048	     -0.00000005	      0.00000000	    -14.04766306	     -3.80181781	      5.57268476
      2.62000000	     -9.02685574	      0.00487822	      0.06158287	     -0.12191671	      0.90898758	     -0.01047686	     -1.39661341	     -0.08063298	     -3.05796234	     -5.85367587	     16.68857175	      0.00000056	      0.00000000	     52.26267957	     -5.80137935	     -6.75126867	    -27.05977820	     22.70947269	     -0.00000002	      0.00000000	    -14.11377008	     -3.90298216	      5.55839237
      2.63000000	     -8.79121875	      0.15079387	     -0.14955170	     -0.12082809	      0.90521696	     -0.01140366	     -2.61792406	     -0.39046080	     -3.23384345	     -5.76765110	     17.21538488	      0.00000060	      0.00000000	     52.39097729	     -5.71890780	     -6.47926162	    -27.26841016	     22.71175361	     -0.00000006	      0.00000000	    -14.17884086	     -4.21498946	      5.60068436
      2.64000000	     -8.58028764	      0.26790359	     -0.34706877	     -0.11951987	      0.90161780	     -0.01248391	     -3.62246938	     -0.69222913	     -3.32907972	     -6.10082986	     18.08542224	      0.00000064	      0.00000000	     52.59108514	     -5.65817799	     -6.25208676	    -27.89566079	     19.54834340	     -0.00000009	      0.00000000	    -14.20039629	     -4.48025056	      5.64478211
